<svg width="15" height="17" viewBox="0 0 15 17" fill="none" xmlns="http://www.w3.org/2000/svg">
<path d="M14.375 2.5H11.25V1.875C11.25 1.37772 11.0525 0.900806 10.7008 0.549175C10.3492 0.197544 9.87228 0 9.375 0H5.625C5.12772 0 4.65081 0.197544 4.29917 0.549175C3.94754 0.900806 3.75 1.37772 3.75 1.875V2.5H0.625C0.45924 2.5 0.300269 2.56585 0.183058 2.68306C0.0658481 2.80027 0 2.95924 0 3.125C0 3.29076 0.0658481 3.44973 0.183058 3.56694C0.300269 3.68415 0.45924 3.75 0.625 3.75H1.25V15C1.25 15.3315 1.3817 15.6495 1.61612 15.8839C1.85054 16.1183 2.16848 16.25 2.5 16.25H12.5C12.8315 16.25 13.1495 16.1183 13.3839 15.8839C13.6183 15.6495 13.75 15.3315 13.75 15V3.75H14.375C14.5408 3.75 14.6997 3.68415 14.8169 3.56694C14.9342 3.44973 15 3.29076 15 3.125C15 2.95924 14.9342 2.80027 14.8169 2.68306C14.6997 2.56585 14.5408 2.5 14.375 2.5ZM5 1.875C5 1.70924 5.06585 1.55027 5.18306 1.43306C5.30027 1.31585 5.45924 1.25 5.625 1.25H9.375C9.54076 1.25 9.69973 1.31585 9.81694 1.43306C9.93415 1.55027 10 1.70924 10 1.875V2.5H5V1.875ZM12.5 15H2.5V3.75H12.5V15ZM6.25 6.875V11.875C6.25 12.0408 6.18415 12.1997 6.06694 12.3169C5.94973 12.4342 5.79076 12.5 5.625 12.5C5.45924 12.5 5.30027 12.4342 5.18306 12.3169C5.06585 12.1997 5 12.0408 5 11.875V6.875C5 6.70924 5.06585 6.55027 5.18306 6.43306C5.30027 6.31585 5.45924 6.25 5.625 6.25C5.79076 6.25 5.94973 6.31585 6.06694 6.43306C6.18415 6.55027 6.25 6.70924 6.25 6.875ZM10 6.875V11.875C10 12.0408 9.93415 12.1997 9.81694 12.3169C9.69973 12.4342 9.54076 12.5 9.375 12.5C9.20924 12.5 9.05027 12.4342 8.93306 12.3169C8.81585 12.1997 8.75 12.0408 8.75 11.875V6.875C8.75 6.70924 8.81585 6.55027 8.93306 6.43306C9.05027 6.31585 9.20924 6.25 9.375 6.25C9.54076 6.25 9.69973 6.31585 9.81694 6.43306C9.93415 6.55027 10 6.70924 10 6.875Z" fill="#FF2524"/>
</svg>
