<svg width="48" height="48" viewBox="0 0 48 48" fill="none" xmlns="http://www.w3.org/2000/svg">
<circle cx="24" cy="24" r="24" fill="#333333"/>
<path d="M32.1328 31.8478L26.2641 22.6247L32.055 16.2544C32.186 16.1067 32.2535 15.9134 32.2429 15.7164C32.2323 15.5193 32.1444 15.3343 31.9984 15.2016C31.8523 15.0689 31.6598 14.9991 31.4627 15.0073C31.2655 15.0155 31.0795 15.1012 30.945 15.2456L25.4288 21.3131L21.6328 15.3478C21.5651 15.2413 21.4716 15.1535 21.361 15.0927C21.2504 15.0319 21.1262 15 21 15H16.5C16.3655 14.9999 16.2335 15.036 16.1178 15.1045C16.002 15.173 15.9068 15.2713 15.8421 15.3892C15.7774 15.5071 15.7456 15.6402 15.75 15.7746C15.7545 15.909 15.7949 16.0397 15.8672 16.1531L21.7359 25.3753L15.945 31.7503C15.8774 31.823 15.8248 31.9083 15.7904 32.0014C15.756 32.0945 15.7405 32.1935 15.7446 32.2927C15.7488 32.3918 15.7725 32.4892 15.8146 32.5791C15.8566 32.669 15.9161 32.7496 15.9895 32.8164C16.063 32.8831 16.149 32.9346 16.2425 32.9679C16.336 33.0012 16.4351 33.0156 16.5342 33.0103C16.6334 33.0049 16.7304 32.98 16.8198 32.9369C16.9092 32.8937 16.9891 32.8333 17.055 32.7591L22.5713 26.6916L26.3672 32.6569C26.4354 32.7625 26.5292 32.8494 26.6397 32.9093C26.7503 32.9693 26.8742 33.0005 27 33H31.5C31.6343 33 31.7662 32.9638 31.8818 32.8954C31.9974 32.827 32.0925 32.7288 32.1572 32.611C32.2218 32.4933 32.2537 32.3604 32.2494 32.2261C32.2451 32.0918 32.2049 31.9612 32.1328 31.8478ZM27.4116 31.5L17.8659 16.5H20.5847L30.1341 31.5H27.4116Z" fill="white"/>
</svg>
