<svg width="20" height="20" viewBox="0 0 20 20" fill="none" xmlns="http://www.w3.org/2000/svg">
<path d="M0.625 9.99926C0.625 14.093 3.25 17.5618 6.875 18.843V1.15551C3.25 2.43676 0.625 5.90551 0.625 9.99926ZM19.375 9.99926C19.375 5.90551 16.7812 2.43676 13.125 1.15551V18.843C16.7812 17.5618 19.375 14.093 19.375 9.99926Z" fill="#189B62"/>
<path d="M6.875 18.8443C7.84375 19.1881 8.90625 19.3756 10 19.3756C11.0938 19.3756 12.1562 19.1881 13.125 18.8443V1.15681C12.1562 0.813063 11.0938 0.625563 10 0.625563C8.90625 0.625563 7.84375 0.813063 6.875 1.15681V18.8443Z" fill="white"/>
</svg>
