<svg width="15" height="13" viewBox="0 0 15 13" fill="none" xmlns="http://www.w3.org/2000/svg">
<path d="M6 12C6 12.1978 5.94135 12.3911 5.83147 12.5556C5.72159 12.72 5.56541 12.8482 5.38268 12.9239C5.19996 12.9996 4.99889 13.0194 4.80491 12.9808C4.61093 12.9422 4.43275 12.847 4.29289 12.7071C4.15304 12.5673 4.0578 12.3891 4.01921 12.1951C3.98063 12.0011 4.00043 11.8 4.07612 11.6173C4.15181 11.4346 4.27998 11.2784 4.44443 11.1685C4.60888 11.0587 4.80222 11 5 11C5.26522 11 5.51957 11.1054 5.70711 11.2929C5.89464 11.4804 6 11.7348 6 12ZM11.5 11C11.3022 11 11.1089 11.0587 10.9444 11.1685C10.78 11.2784 10.6518 11.4346 10.5761 11.6173C10.5004 11.8 10.4806 12.0011 10.5192 12.1951C10.5578 12.3891 10.653 12.5673 10.7929 12.7071C10.9327 12.847 11.1109 12.9422 11.3049 12.9808C11.4989 13.0194 11.7 12.9996 11.8827 12.9239C12.0654 12.8482 12.2216 12.72 12.3315 12.5556C12.4414 12.3911 12.5 12.1978 12.5 12C12.5 11.7348 12.3946 11.4804 12.2071 11.2929C12.0196 11.1054 11.7652 11 11.5 11ZM14.4819 3.13375L12.8794 8.90125C12.7913 9.21631 12.6028 9.49404 12.3426 9.69232C12.0824 9.89061 11.7646 9.99863 11.4375 10H5.26C4.93189 9.99985 4.61284 9.8924 4.3515 9.69402C4.09016 9.49564 3.90087 9.21723 3.8125 8.90125L1.62 1H0.5C0.367392 1 0.240215 0.947322 0.146447 0.853553C0.0526784 0.759785 0 0.632608 0 0.5C0 0.367392 0.0526784 0.240215 0.146447 0.146447C0.240215 0.0526784 0.367392 9.23526e-09 0.5 9.23526e-09H2C2.10931 -2.09937e-05 2.21562 0.0357823 2.30265 0.101929C2.38968 0.168075 2.45263 0.26092 2.48187 0.36625L3.07437 2.5H14C14.0771 2.49999 14.1531 2.51779 14.2222 2.55203C14.2912 2.58627 14.3515 2.63601 14.3981 2.69737C14.4448 2.75873 14.4766 2.83004 14.4911 2.90574C14.5057 2.98144 14.5025 3.05948 14.4819 3.13375ZM13.3419 3.5H3.3525L4.77812 8.63375C4.80737 8.73908 4.87032 8.83193 4.95735 8.89807C5.04438 8.96422 5.15069 9.00002 5.26 9H11.4375C11.5468 9.00002 11.6531 8.96422 11.7402 8.89807C11.8272 8.83193 11.8901 8.73908 11.9194 8.63375L13.3419 3.5Z" fill="black"/>
</svg>
